<svg xmlns="http://www.w3.org/2000/svg" width="1000" height="640" viewBox="0 0 1000 640" role="img" aria-label="Calculadora com conta simples"><defs>
  <linearGradient id="bg-paper" x1="0" y1="0" x2="0" y2="1">
    <stop offset="0" stop-color="#EEF2F6"/><stop offset="1" stop-color="#DFE6EC"/>
  </linearGradient>
  <radialGradient id="bg-glow" cx="0.5" cy="0.08" r="0.9">
    <stop offset="0" stop-color="#ffffff" stop-opacity="0.5"/><stop offset="1" stop-color="#ffffff" stop-opacity="0"/>
  </radialGradient>
  <linearGradient id="sheen" x1="0" y1="0" x2="0" y2="1">
    <stop offset="0" stop-color="#ffffff" stop-opacity="0.22"/><stop offset="1" stop-color="#ffffff" stop-opacity="0"/>
  </linearGradient>
  <filter id="sh-soft" x="-30%" y="-30%" width="160%" height="160%">
    <feDropShadow dx="0" dy="10" stdDeviation="16" flood-color="#16203A" flood-opacity="0.18"/>
  </filter>
  <filter id="sh-card" x="-40%" y="-40%" width="180%" height="180%">
    <feDropShadow dx="0" dy="4" stdDeviation="8" flood-color="#16203A" flood-opacity="0.13"/>
  </filter></defs>
  <rect width="1000" height="640" fill="url(#bg-paper)"/><rect width="1000" height="320" fill="url(#bg-glow)"/>
  <rect x="48" y="34" width="904" height="572" rx="30" fill="#ffffff" filter="url(#sh-soft)"/><rect x="48" y="34" width="904" height="572" rx="30" fill="none" stroke="#E2D8C2" stroke-width="2"/>
  <linearGradient id="hg-1b2a4e" x1="0" y1="0" x2="0" y2="1"><stop offset="0" stop-color="#2d3b5c"/><stop offset="1" stop-color="#15203b"/></linearGradient>
  <path d="M48 64 a30 30 0 0 1 30 -30 h844 a30 30 0 0 1 30 30 v78 h-904 z" fill="url(#hg-1b2a4e)"/>
  <path d="M48 64 a30 30 0 0 1 30 -30 h844 a30 30 0 0 1 30 30 v34 h-904 z" fill="url(#sheen)"/>
  <circle cx="126" cy="88" r="34" fill="#5f6a83"/><circle cx="126" cy="88" r="34" fill="none" stroke="rgba(255,255,255,.35)" stroke-width="3"/><text x="126" y="99.56" text-anchor="middle" fill="#fff" font-family="Arial" font-size="32" font-weight="700">=</text>
  <text x="180" y="80" fill="#fff" font-family="Arial" font-size="26" font-weight="700">Calculadora</text>
  <text x="180" y="116" fill="#9fa6b5" font-family="Arial" font-size="20" font-weight="700">conta simples</text>
  <rect x="300" y="188" width="426" height="110" rx="14" fill="#0F1830" filter="url(#sh-card)"/>
  <text x="700" y="232" text-anchor="end" fill="#9FB4D6" font-family="Arial" font-size="24">12 + 8</text>
  <text x="700" y="280" text-anchor="end" fill="#fff" font-family="Arial" font-size="40" font-weight="700">20</text><rect x="300" y="320" width="96" height="58" rx="12" fill="#fff"/><rect x="300" y="320" width="96" height="58" rx="12" fill="none" stroke="#D9CFB8" stroke-width="2"/>
       <text x="348" y="359" text-anchor="middle" fill="#1A2540" font-family="Arial" font-size="26" font-weight="700">7</text><rect x="410" y="320" width="96" height="58" rx="12" fill="#fff"/><rect x="410" y="320" width="96" height="58" rx="12" fill="none" stroke="#D9CFB8" stroke-width="2"/>
       <text x="458" y="359" text-anchor="middle" fill="#1A2540" font-family="Arial" font-size="26" font-weight="700">8</text><rect x="520" y="320" width="96" height="58" rx="12" fill="#fff"/><rect x="520" y="320" width="96" height="58" rx="12" fill="none" stroke="#D9CFB8" stroke-width="2"/>
       <text x="568" y="359" text-anchor="middle" fill="#1A2540" font-family="Arial" font-size="26" font-weight="700">9</text><rect x="630" y="320" width="96" height="58" rx="12" fill="#364463"/><rect x="630" y="320" width="96" height="58" rx="12" fill="none" stroke="#D9CFB8" stroke-width="2"/>
       <text x="678" y="359" text-anchor="middle" fill="#fff" font-family="Arial" font-size="26" font-weight="700">÷</text><rect x="300" y="390" width="96" height="58" rx="12" fill="#fff"/><rect x="300" y="390" width="96" height="58" rx="12" fill="none" stroke="#D9CFB8" stroke-width="2"/>
       <text x="348" y="429" text-anchor="middle" fill="#1A2540" font-family="Arial" font-size="26" font-weight="700">4</text><rect x="410" y="390" width="96" height="58" rx="12" fill="#fff"/><rect x="410" y="390" width="96" height="58" rx="12" fill="none" stroke="#D9CFB8" stroke-width="2"/>
       <text x="458" y="429" text-anchor="middle" fill="#1A2540" font-family="Arial" font-size="26" font-weight="700">5</text><rect x="520" y="390" width="96" height="58" rx="12" fill="#fff"/><rect x="520" y="390" width="96" height="58" rx="12" fill="none" stroke="#D9CFB8" stroke-width="2"/>
       <text x="568" y="429" text-anchor="middle" fill="#1A2540" font-family="Arial" font-size="26" font-weight="700">6</text><rect x="630" y="390" width="96" height="58" rx="12" fill="#364463"/><rect x="630" y="390" width="96" height="58" rx="12" fill="none" stroke="#D9CFB8" stroke-width="2"/>
       <text x="678" y="429" text-anchor="middle" fill="#fff" font-family="Arial" font-size="26" font-weight="700">×</text><rect x="300" y="460" width="96" height="58" rx="12" fill="#fff"/><rect x="300" y="460" width="96" height="58" rx="12" fill="none" stroke="#D9CFB8" stroke-width="2"/>
       <text x="348" y="499" text-anchor="middle" fill="#1A2540" font-family="Arial" font-size="26" font-weight="700">1</text><rect x="410" y="460" width="96" height="58" rx="12" fill="#fff"/><rect x="410" y="460" width="96" height="58" rx="12" fill="none" stroke="#D9CFB8" stroke-width="2"/>
       <text x="458" y="499" text-anchor="middle" fill="#1A2540" font-family="Arial" font-size="26" font-weight="700">2</text><rect x="520" y="460" width="96" height="58" rx="12" fill="#fff"/><rect x="520" y="460" width="96" height="58" rx="12" fill="none" stroke="#D9CFB8" stroke-width="2"/>
       <text x="568" y="499" text-anchor="middle" fill="#1A2540" font-family="Arial" font-size="26" font-weight="700">3</text><rect x="630" y="460" width="96" height="58" rx="12" fill="#364463"/><rect x="630" y="460" width="96" height="58" rx="12" fill="none" stroke="#D9CFB8" stroke-width="2"/>
       <text x="678" y="499" text-anchor="middle" fill="#fff" font-family="Arial" font-size="26" font-weight="700">-</text><rect x="300" y="530" width="96" height="58" rx="12" fill="#fff"/><rect x="300" y="530" width="96" height="58" rx="12" fill="none" stroke="#D9CFB8" stroke-width="2"/>
       <text x="348" y="569" text-anchor="middle" fill="#1A2540" font-family="Arial" font-size="26" font-weight="700">0</text><rect x="410" y="530" width="96" height="58" rx="12" fill="#fff"/><rect x="410" y="530" width="96" height="58" rx="12" fill="none" stroke="#D9CFB8" stroke-width="2"/>
       <text x="458" y="569" text-anchor="middle" fill="#1A2540" font-family="Arial" font-size="26" font-weight="700">.</text><rect x="520" y="530" width="96" height="58" rx="12" fill="#364463"/><rect x="520" y="530" width="96" height="58" rx="12" fill="none" stroke="#D9CFB8" stroke-width="2"/>
       <text x="568" y="569" text-anchor="middle" fill="#fff" font-family="Arial" font-size="26" font-weight="700">=</text><rect x="630" y="530" width="96" height="58" rx="12" fill="#364463"/><rect x="630" y="530" width="96" height="58" rx="12" fill="none" stroke="#D9CFB8" stroke-width="2"/>
       <text x="678" y="569" text-anchor="middle" fill="#fff" font-family="Arial" font-size="26" font-weight="700">+</text>
</svg>
