<svg xmlns="http://www.w3.org/2000/svg" width="1000" height="640" viewBox="0 0 1000 640" role="img" aria-label="Barra de progresso de download"><defs>
  <linearGradient id="bg-paper" x1="0" y1="0" x2="0" y2="1">
    <stop offset="0" stop-color="#EEF2F6"/><stop offset="1" stop-color="#DFE6EC"/>
  </linearGradient>
  <radialGradient id="bg-glow" cx="0.5" cy="0.08" r="0.9">
    <stop offset="0" stop-color="#ffffff" stop-opacity="0.5"/><stop offset="1" stop-color="#ffffff" stop-opacity="0"/>
  </radialGradient>
  <linearGradient id="sheen" x1="0" y1="0" x2="0" y2="1">
    <stop offset="0" stop-color="#ffffff" stop-opacity="0.22"/><stop offset="1" stop-color="#ffffff" stop-opacity="0"/>
  </linearGradient>
  <filter id="sh-soft" x="-30%" y="-30%" width="160%" height="160%">
    <feDropShadow dx="0" dy="10" stdDeviation="16" flood-color="#16203A" flood-opacity="0.18"/>
  </filter>
  <filter id="sh-card" x="-40%" y="-40%" width="180%" height="180%">
    <feDropShadow dx="0" dy="4" stdDeviation="8" flood-color="#16203A" flood-opacity="0.13"/>
  </filter></defs>
  <rect width="1000" height="640" fill="url(#bg-paper)"/><rect width="1000" height="320" fill="url(#bg-glow)"/>
  <rect x="48" y="34" width="904" height="572" rx="30" fill="#ffffff" filter="url(#sh-soft)"/><rect x="48" y="34" width="904" height="572" rx="30" fill="none" stroke="#E2D8C2" stroke-width="2"/>
  <linearGradient id="hg-1b2a4e" x1="0" y1="0" x2="0" y2="1"><stop offset="0" stop-color="#2d3b5c"/><stop offset="1" stop-color="#15203b"/></linearGradient>
  <path d="M48 64 a30 30 0 0 1 30 -30 h844 a30 30 0 0 1 30 30 v78 h-904 z" fill="url(#hg-1b2a4e)"/>
  <path d="M48 64 a30 30 0 0 1 30 -30 h844 a30 30 0 0 1 30 30 v34 h-904 z" fill="url(#sheen)"/>
  <circle cx="126" cy="88" r="34" fill="#5f6a83"/><circle cx="126" cy="88" r="34" fill="none" stroke="rgba(255,255,255,.35)" stroke-width="3"/><text x="126" y="99.56" text-anchor="middle" fill="#fff" font-family="Arial" font-size="32" font-weight="700">⤓</text>
  <text x="180" y="80" fill="#fff" font-family="Arial" font-size="26" font-weight="700">Downloads</text>
  <text x="180" y="116" fill="#9fa6b5" font-family="Arial" font-size="20" font-weight="700">navegador</text>
  <rect x="92" y="200" width="816" height="150" rx="16" fill="#ffffff" filter="url(#sh-card)"/><rect x="92" y="200" width="816" height="150" rx="16" fill="none" stroke="#D9CFB8" stroke-width="2"/>
  <rect x="124" y="232" width="56" height="72" rx="6" fill="#EAF0F6"/>
  <text x="152" y="278" text-anchor="middle" fill="#1B2A4E" font-family="Arial" font-size="16" font-weight="700">PDF</text>
  <text x="208" y="252" fill="#1A2540" font-family="Arial" font-size="24" font-weight="700">manual-inscricao.pdf</text>
  <text x="208" y="286" fill="#5A6173" font-family="Arial" font-size="19">De: gov.br</text>
  <rect x="208" y="306" width="700" height="14" rx="7" fill="#E6DDC8"/>
  <rect x="208" y="306" width="504" height="14" rx="7" fill="#4F7CAC"/>
  <text x="884" y="252" text-anchor="end" fill="#4F7CAC" font-family="Arial" font-size="22" font-weight="700">72%</text>
  <rect x="92" y="380" width="816" height="170" rx="14" fill="#FBF6EA" filter="url(#sh-soft)"/><rect x="92" y="380" width="816" height="170" rx="14" fill="none" stroke="#D9CFB8" stroke-width="2"/>
  <text x="124" y="430" fill="#D49545" font-family="Arial" font-size="23" font-weight="700">Antes de abrir um download:</text>
  <text x="124" y="476" fill="#5A6173" font-family="Arial" font-size="21"><tspan x="124" dy="0">confira se o site é confiável e o tipo do arquivo.</tspan><tspan x="124" dy="34">Desconfie de .exe e .zip de origem desconhecida.</tspan></text>
</svg>
