<svg xmlns="http://www.w3.org/2000/svg" width="1000" height="640" viewBox="0 0 1000 640" role="img" aria-label="Pop-up falso de vírus no navegador"><defs>
  <linearGradient id="bg-paper" x1="0" y1="0" x2="0" y2="1">
    <stop offset="0" stop-color="#EEF2F6"/><stop offset="1" stop-color="#DFE6EC"/>
  </linearGradient>
  <radialGradient id="bg-glow" cx="0.5" cy="0.08" r="0.9">
    <stop offset="0" stop-color="#ffffff" stop-opacity="0.5"/><stop offset="1" stop-color="#ffffff" stop-opacity="0"/>
  </radialGradient>
  <linearGradient id="sheen" x1="0" y1="0" x2="0" y2="1">
    <stop offset="0" stop-color="#ffffff" stop-opacity="0.22"/><stop offset="1" stop-color="#ffffff" stop-opacity="0"/>
  </linearGradient>
  <filter id="sh-soft" x="-30%" y="-30%" width="160%" height="160%">
    <feDropShadow dx="0" dy="10" stdDeviation="16" flood-color="#16203A" flood-opacity="0.18"/>
  </filter>
  <filter id="sh-card" x="-40%" y="-40%" width="180%" height="180%">
    <feDropShadow dx="0" dy="4" stdDeviation="8" flood-color="#16203A" flood-opacity="0.13"/>
  </filter></defs>
  <rect width="1000" height="640" fill="#33414F"/>
  <rect x="0" y="0" width="1000" height="40" fill="#1E2933"/>
  <text x="20" y="27" fill="#9AA2B4" font-family="Arial" font-size="16">www.noticias-do-dia.info</text>
  <rect x="230" y="140" width="540" height="360" rx="18" fill="#fff"/>
  <rect x="230" y="140" width="540" height="64" rx="18" fill="#C0392B"/>
  <rect x="230" y="180" width="540" height="24" fill="#C0392B"/>
  <text x="262" y="182" fill="#fff" font-family="Arial" font-size="24" font-weight="700">⚠ Alerta de segurança</text>
  <text x="724" y="182" fill="#fff" font-family="Arial" font-size="28" font-weight="700" text-anchor="middle">✕</text>
  <text x="500" y="262" text-anchor="middle" fill="#1A2540" font-family="Arial" font-size="26" font-weight="700">Seu computador está infectado!</text>
  <text x="500" y="306" text-anchor="middle" fill="#4A5670" font-family="Arial" font-size="21">5 vírus encontrados. Limpe agora para</text>
  <text x="500" y="334" text-anchor="middle" fill="#4A5670" font-family="Arial" font-size="21">proteger seus dados bancários.</text>
  <rect x="300" y="392" width="400" height="72" rx="12" fill="#27AE60"/>
  <text x="500" y="438" text-anchor="middle" fill="#fff" font-family="Arial" font-size="24" font-weight="700">Limpar agora (grátis)</text>
</svg>
