<svg xmlns="http://www.w3.org/2000/svg" width="1000" height="640" viewBox="0 0 1000 640" role="img" aria-label="Tradutor de português para inglês"><defs>
  <linearGradient id="bg-paper" x1="0" y1="0" x2="0" y2="1">
    <stop offset="0" stop-color="#EEF2F6"/><stop offset="1" stop-color="#DFE6EC"/>
  </linearGradient>
  <radialGradient id="bg-glow" cx="0.5" cy="0.08" r="0.9">
    <stop offset="0" stop-color="#ffffff" stop-opacity="0.5"/><stop offset="1" stop-color="#ffffff" stop-opacity="0"/>
  </radialGradient>
  <linearGradient id="sheen" x1="0" y1="0" x2="0" y2="1">
    <stop offset="0" stop-color="#ffffff" stop-opacity="0.22"/><stop offset="1" stop-color="#ffffff" stop-opacity="0"/>
  </linearGradient>
  <filter id="sh-soft" x="-30%" y="-30%" width="160%" height="160%">
    <feDropShadow dx="0" dy="10" stdDeviation="16" flood-color="#16203A" flood-opacity="0.18"/>
  </filter>
  <filter id="sh-card" x="-40%" y="-40%" width="180%" height="180%">
    <feDropShadow dx="0" dy="4" stdDeviation="8" flood-color="#16203A" flood-opacity="0.13"/>
  </filter></defs>
  
  <rect width="1000" height="640" fill="url(#bg-paper)"/><rect width="1000" height="320" fill="url(#bg-glow)"/>
  <rect x="48" y="34" width="904" height="572" rx="30" fill="#ffffff" filter="url(#sh-soft)"/><rect x="48" y="34" width="904" height="572" rx="30" fill="none" stroke="#E2D8C2" stroke-width="2"/>
  <linearGradient id="hg-6b3f7a" x1="0" y1="0" x2="0" y2="1"><stop offset="0" stop-color="#774e85"/><stop offset="1" stop-color="#51305d"/></linearGradient>
  <path d="M48 64 a30 30 0 0 1 30 -30 h844 a30 30 0 0 1 30 30 v78 h-904 z" fill="url(#hg-6b3f7a)"/>
  <path d="M48 64 a30 30 0 0 1 30 -30 h844 a30 30 0 0 1 30 30 v34 h-904 z" fill="url(#sheen)"/>
  <circle cx="126" cy="88" r="34" fill="#9779a2"/><circle cx="126" cy="88" r="34" fill="none" stroke="rgba(255,255,255,.35)" stroke-width="3"/><text x="126" y="99.56" text-anchor="middle" fill="#fff" font-family="Arial" font-size="32" font-weight="700">�</text>
  <text x="180" y="80" fill="#fff" font-family="Arial" font-size="26" font-weight="700">Tradutor</text>
  <text x="180" y="116" fill="#c1aec7" font-family="Arial" font-size="20" font-weight="700">Português → Inglês</text>
  <rect x="92" y="172" width="392" height="380" rx="18" fill="#F4F1E8" stroke="#D9CFB8" stroke-width="2"/>
  <text x="120" y="216" fill="#6B3F7A" font-family="Arial" font-size="20" font-weight="700" letter-spacing="1">PORTUGUÊS</text>
  <text x="120" y="280" fill="#1A2540" font-family="Arial" font-size="26"><tspan x="120" dy="0">Bom dia! Eu gostaria de</tspan><tspan x="120" dy="42">agendar uma reunião.</tspan></text>
  <circle cx="500" cy="362" r="36" fill="#6B3F7A"/>
  <path d="M484 354 h26 m-10 -10 l12 10 l-12 10 M516 370 h-26 m10 -10 l-12 10 l12 10" fill="none" stroke="#fff" stroke-width="4" stroke-linecap="round" stroke-linejoin="round"/>
  <rect x="516" y="172" width="392" height="380" rx="18" fill="#EFE6F2" stroke="#C7AED1" stroke-width="2"/>
  <text x="544" y="216" fill="#6B3F7A" font-family="Arial" font-size="20" font-weight="700" letter-spacing="1">INGLÊS</text>
  <text x="544" y="280" fill="#1A2540" font-family="Arial" font-size="26"><tspan x="544" dy="0">Good morning! I would like</tspan><tspan x="544" dy="42">to schedule a meeting.</tspan></text>
</svg>
