<svg xmlns="http://www.w3.org/2000/svg" width="1000" height="640" viewBox="0 0 1000 640" role="img" aria-label="Lista de contatos da agenda"><defs>
  <linearGradient id="bg-paper" x1="0" y1="0" x2="0" y2="1">
    <stop offset="0" stop-color="#EEF2F6"/><stop offset="1" stop-color="#DFE6EC"/>
  </linearGradient>
  <radialGradient id="bg-glow" cx="0.5" cy="0.08" r="0.9">
    <stop offset="0" stop-color="#ffffff" stop-opacity="0.5"/><stop offset="1" stop-color="#ffffff" stop-opacity="0"/>
  </radialGradient>
  <linearGradient id="sheen" x1="0" y1="0" x2="0" y2="1">
    <stop offset="0" stop-color="#ffffff" stop-opacity="0.22"/><stop offset="1" stop-color="#ffffff" stop-opacity="0"/>
  </linearGradient>
  <filter id="sh-soft" x="-30%" y="-30%" width="160%" height="160%">
    <feDropShadow dx="0" dy="10" stdDeviation="16" flood-color="#16203A" flood-opacity="0.18"/>
  </filter>
  <filter id="sh-card" x="-40%" y="-40%" width="180%" height="180%">
    <feDropShadow dx="0" dy="4" stdDeviation="8" flood-color="#16203A" flood-opacity="0.13"/>
  </filter></defs>
  <rect width="1000" height="640" fill="url(#bg-paper)"/><rect width="1000" height="320" fill="url(#bg-glow)"/>
  <rect x="48" y="34" width="904" height="572" rx="30" fill="#ffffff" filter="url(#sh-soft)"/><rect x="48" y="34" width="904" height="572" rx="30" fill="none" stroke="#E2D8C2" stroke-width="2"/>
  <linearGradient id="hg-4f7cac" x1="0" y1="0" x2="0" y2="1"><stop offset="0" stop-color="#5d86b3"/><stop offset="1" stop-color="#3c5e83"/></linearGradient>
  <path d="M48 64 a30 30 0 0 1 30 -30 h844 a30 30 0 0 1 30 30 v78 h-904 z" fill="url(#hg-4f7cac)"/>
  <path d="M48 64 a30 30 0 0 1 30 -30 h844 a30 30 0 0 1 30 30 v34 h-904 z" fill="url(#sheen)"/>
  <circle cx="126" cy="88" r="34" fill="#84a3c5"/><circle cx="126" cy="88" r="34" fill="none" stroke="rgba(255,255,255,.35)" stroke-width="3"/><text x="126" y="99.56" text-anchor="middle" fill="#fff" font-family="Arial" font-size="32" font-weight="700">☰</text>
  <text x="180" y="80" fill="#fff" font-family="Arial" font-size="26" font-weight="700">Contatos</text>
  <text x="180" y="116" fill="#ecf1f6" font-family="Arial" font-size="20" font-weight="700">agenda</text><line x1="92" y1="252" x2="908" y2="252" stroke="#D9CFB8" stroke-width="1.5"/>
       <circle cx="140" cy="210" r="28" fill="#E25B3F"/><circle cx="140" cy="210" r="28" fill="none" stroke="rgba(255,255,255,.35)" stroke-width="3"/><text x="140" y="219.52" text-anchor="middle" fill="#fff" font-family="Arial" font-size="27" font-weight="700">A</text>
       <text x="190" y="220" fill="#1A2540" font-family="Arial" font-size="25" font-weight="700">Ana Souza</text>
       <circle cx="868" cy="210" r="22" fill="#EEF4EE"/>
       <path d="M857 214 q6 -14 22 -6 q-6 14 -22 6 z" fill="#4F7A55"/><line x1="92" y1="332" x2="908" y2="332" stroke="#D9CFB8" stroke-width="1.5"/>
       <circle cx="140" cy="290" r="28" fill="#4F7CAC"/><circle cx="140" cy="290" r="28" fill="none" stroke="rgba(255,255,255,.35)" stroke-width="3"/><text x="140" y="299.52" text-anchor="middle" fill="#fff" font-family="Arial" font-size="27" font-weight="700">C</text>
       <text x="190" y="300" fill="#1A2540" font-family="Arial" font-size="25" font-weight="700">Carlos Lima</text>
       <circle cx="868" cy="290" r="22" fill="#EEF4EE"/>
       <path d="M857 294 q6 -14 22 -6 q-6 14 -22 6 z" fill="#4F7A55"/><line x1="92" y1="412" x2="908" y2="412" stroke="#D9CFB8" stroke-width="1.5"/>
       <circle cx="140" cy="370" r="28" fill="#6B3F7A"/><circle cx="140" cy="370" r="28" fill="none" stroke="rgba(255,255,255,.35)" stroke-width="3"/><text x="140" y="379.52" text-anchor="middle" fill="#fff" font-family="Arial" font-size="27" font-weight="700">D</text>
       <text x="190" y="380" fill="#1A2540" font-family="Arial" font-size="25" font-weight="700">Dona Maria</text>
       <circle cx="868" cy="370" r="22" fill="#EEF4EE"/>
       <path d="M857 374 q6 -14 22 -6 q-6 14 -22 6 z" fill="#4F7A55"/><line x1="92" y1="492" x2="908" y2="492" stroke="#D9CFB8" stroke-width="1.5"/>
       <circle cx="140" cy="450" r="28" fill="#4F7A55"/><circle cx="140" cy="450" r="28" fill="none" stroke="rgba(255,255,255,.35)" stroke-width="3"/><text x="140" y="459.52" text-anchor="middle" fill="#fff" font-family="Arial" font-size="27" font-weight="700">F</text>
       <text x="190" y="460" fill="#1A2540" font-family="Arial" font-size="25" font-weight="700">Farmácia</text>
       <circle cx="868" cy="450" r="22" fill="#EEF4EE"/>
       <path d="M857 454 q6 -14 22 -6 q-6 14 -22 6 z" fill="#4F7A55"/><line x1="92" y1="572" x2="908" y2="572" stroke="#D9CFB8" stroke-width="1.5"/>
       <circle cx="140" cy="530" r="28" fill="#D49545"/><circle cx="140" cy="530" r="28" fill="none" stroke="rgba(255,255,255,.35)" stroke-width="3"/><text x="140" y="539.52" text-anchor="middle" fill="#fff" font-family="Arial" font-size="27" font-weight="700">J</text>
       <text x="190" y="540" fill="#1A2540" font-family="Arial" font-size="25" font-weight="700">João Neto</text>
       <circle cx="868" cy="530" r="22" fill="#EEF4EE"/>
       <path d="M857 534 q6 -14 22 -6 q-6 14 -22 6 z" fill="#4F7A55"/>
</svg>
