<svg xmlns="http://www.w3.org/2000/svg" width="1000" height="640" viewBox="0 0 1000 640" role="img" aria-label="Tela de confirmação de PIX"><defs>
  <linearGradient id="bg-paper" x1="0" y1="0" x2="0" y2="1">
    <stop offset="0" stop-color="#EEF2F6"/><stop offset="1" stop-color="#DFE6EC"/>
  </linearGradient>
  <radialGradient id="bg-glow" cx="0.5" cy="0.08" r="0.9">
    <stop offset="0" stop-color="#ffffff" stop-opacity="0.5"/><stop offset="1" stop-color="#ffffff" stop-opacity="0"/>
  </radialGradient>
  <linearGradient id="sheen" x1="0" y1="0" x2="0" y2="1">
    <stop offset="0" stop-color="#ffffff" stop-opacity="0.22"/><stop offset="1" stop-color="#ffffff" stop-opacity="0"/>
  </linearGradient>
  <filter id="sh-soft" x="-30%" y="-30%" width="160%" height="160%">
    <feDropShadow dx="0" dy="10" stdDeviation="16" flood-color="#16203A" flood-opacity="0.18"/>
  </filter>
  <filter id="sh-card" x="-40%" y="-40%" width="180%" height="180%">
    <feDropShadow dx="0" dy="4" stdDeviation="8" flood-color="#16203A" flood-opacity="0.13"/>
  </filter></defs>
  
  <rect width="1000" height="640" fill="url(#bg-paper)"/><rect width="1000" height="320" fill="url(#bg-glow)"/>
  <rect x="48" y="34" width="904" height="572" rx="30" fill="#ffffff" filter="url(#sh-soft)"/><rect x="48" y="34" width="904" height="572" rx="30" fill="none" stroke="#E2D8C2" stroke-width="2"/>
  <linearGradient id="hg-1b7a4b" x1="0" y1="0" x2="0" y2="1"><stop offset="0" stop-color="#2d8559"/><stop offset="1" stop-color="#155d39"/></linearGradient>
  <path d="M48 64 a30 30 0 0 1 30 -30 h844 a30 30 0 0 1 30 30 v78 h-904 z" fill="url(#hg-1b7a4b)"/>
  <path d="M48 64 a30 30 0 0 1 30 -30 h844 a30 30 0 0 1 30 30 v34 h-904 z" fill="url(#sheen)"/>
  <circle cx="126" cy="88" r="34" fill="#5fa281"/><circle cx="126" cy="88" r="34" fill="none" stroke="rgba(255,255,255,.35)" stroke-width="3"/><text x="126" y="99.56" text-anchor="middle" fill="#fff" font-family="Arial" font-size="32" font-weight="700">$</text>
  <text x="180" y="80" fill="#fff" font-family="Arial" font-size="26" font-weight="700">Banco · PIX</text>
  <text x="180" y="116" fill="#9fc7b3" font-family="Arial" font-size="20" font-weight="700">confirme os dados</text>
  <rect x="92" y="190" width="816" height="118" rx="18" fill="#F4F1E8" stroke="#D9CFB8" stroke-width="2"/>
  <text x="120" y="226" fill="#7A8294" font-family="Arial" font-size="19">Você está enviando para</text>
  <text x="120" y="262" fill="#1A2540" font-family="Arial" font-size="28" font-weight="700">J. P. SANTOS COMERCIO ME</text>
  <text x="120" y="294" fill="#4A5670" font-family="Arial" font-size="21">CPF/CNPJ ••• 41.882/0001-09 · Banco 077</text>
  <text x="120" y="356" fill="#7A8294" font-family="Arial" font-size="19">Valor</text>
  <text x="120" y="402" fill="#1A2540" font-family="Arial" font-size="36" font-weight="700">R$ 1.250,00</text>
  <rect x="140" y="500" width="720" height="84" rx="42" fill="#1B7A4B"/>
  <text x="500" y="552" text-anchor="middle" fill="#fff" font-family="Arial" font-size="27" font-weight="700">Confirmar pagamento</text>
</svg>
