<svg xmlns="http://www.w3.org/2000/svg" width="1200" height="675" viewBox="0 0 1200 675" role="img" aria-label="Conectar a impressora ao computador">
  <defs>
    <linearGradient id="mbg-eef1f8" x1="0" y1="0" x2="0" y2="1"><stop offset="0" stop-color="#f2f5fa"/><stop offset="1" stop-color="#dbdee4"/></linearGradient>
    <linearGradient id="mhd-1b2a4e" x1="0" y1="0" x2="0" y2="1"><stop offset="0" stop-color="#3b4867"/><stop offset="1" stop-color="#162240"/></linearGradient>
    <linearGradient id="macc-4f6ba0" x1="0" y1="0" x2="1" y2="1"><stop offset="0" stop-color="#647dab"/><stop offset="1" stop-color="#425a86"/></linearGradient>
    <linearGradient id="m-sheen" x1="0" y1="0" x2="0" y2="1"><stop offset="0" stop-color="#fff" stop-opacity=".22"/><stop offset="1" stop-color="#fff" stop-opacity="0"/></linearGradient>
    <radialGradient id="m-glow" cx="0.5" cy="0.1" r="0.9"><stop offset="0" stop-color="#fff" stop-opacity=".45"/><stop offset="1" stop-color="#fff" stop-opacity="0"/></radialGradient>
    <filter id="m-panel" x="-12%" y="-12%" width="124%" height="124%"><feDropShadow dx="0" dy="14" stdDeviation="24" flood-color="#10192f" flood-opacity=".16"/></filter>
    <filter id="m-obj" x="-30%" y="-30%" width="160%" height="160%"><feDropShadow dx="0" dy="8" stdDeviation="12" flood-color="#10192f" flood-opacity=".18"/></filter>
  </defs>
  <rect width="1200" height="675" fill="url(#mbg-eef1f8)"/>
  <rect width="1200" height="360" fill="url(#m-glow)"/>
  <circle cx="1080" cy="40" r="190" fill="#4F6BA0" opacity=".12"/>
  <circle cx="120" cy="660" r="220" fill="#D49545" opacity=".10"/>
  <circle cx="375" cy="397" r="4" fill="#1B2A4E" opacity=".06"/><circle cx="519" cy="279" r="6" fill="#1B2A4E" opacity=".06"/><circle cx="904" cy="249" r="7" fill="#1B2A4E" opacity=".06"/><circle cx="953" cy="332" r="8" fill="#1B2A4E" opacity=".06"/><circle cx="836" cy="173" r="8" fill="#1B2A4E" opacity=".06"/>
  <rect x="64" y="150" width="1072" height="430" rx="40" fill="#F7F4EC" filter="url(#m-panel)"/>
  <rect x="64" y="150" width="1072" height="430" rx="40" fill="none" stroke="#cdd0d8" stroke-width="2"/>
  <rect x="64" y="150" width="1072" height="200" rx="40" fill="url(#m-sheen)"/>
  <g filter="url(#m-obj)">
      <rect x="320" y="230" width="340" height="220" rx="14" fill="#fff" stroke="#1B2A4E" stroke-width="9"/>
      <rect x="344" y="252" width="292" height="176" rx="6" fill="#EEF1F8"/>
      <rect x="464" y="450" width="52" height="40" fill="#1B2A4E" opacity=".8"/>
      <rect x="410" y="488" width="160" height="16" rx="8" fill="#1B2A4E"/><path d="M720 310 h90 l24 30 h126 a14 14 0 0 1 14 14 v96 a14 14 0 0 1 -14 14 h-240 a14 14 0 0 1 -14 -14 v-112 a14 14 0 0 1 14 -14 z" fill="#D49545" stroke="#1B2A4E" stroke-width="8"/></g>
  <path d="M0 0 h1200 v96 a24 24 0 0 1 -24 24 h-1152 a24 24 0 0 1 -24 -24 z" fill="url(#mhd-1b2a4e)"/>
  <path d="M0 0 h1200 v44 a24 24 0 0 1 -24 24 h-1152 a24 24 0 0 1 -24 -24 z" fill="url(#m-sheen)"/>
  <text x="72" y="52" fill="#d9a25b" font-family="'Plus Jakarta Sans', system-ui, sans-serif" font-size="22" font-weight="700" letter-spacing="5">IMPRESSÃO E DIGITALIZAÇÃO SEM SOFRIMENTO</text>
  <text x="72" y="98" fill="#fff" font-family="'Fraunces', Georgia, serif" font-size="40" font-weight="700">Conectar a impressora ao</text>
  <rect x="64" y="600" width="170" height="46" rx="23" fill="url(#mhd-1b2a4e)" filter="url(#m-obj)"/>
  <text x="92" y="631" fill="#fff" font-family="'Plus Jakarta Sans', system-ui, sans-serif" font-size="21" font-weight="700">Missão 02</text>
  <rect x="248" y="600" width="138" height="46" rx="23" fill="url(#macc-4f6ba0)" filter="url(#m-obj)"/>
  <text x="280" y="631" fill="#fff" font-family="'Plus Jakarta Sans', system-ui, sans-serif" font-size="21" font-weight="700">9 min</text>
  <text x="1136" y="631" text-anchor="end" fill="#1B2A4E" font-family="'Plus Jakarta Sans', system-ui, sans-serif" font-size="20" font-weight="700" opacity=".5">02/08</text>
</svg>